<svg xmlns="http://www.w3.org/2000/svg" width="74.788" height="73.465" viewBox="0 0 74.788 73.465">
  <g id="그룹_422" data-name="그룹 422" transform="translate(-16.424 -17.167)">
    <g id="그룹_283" data-name="그룹 283" transform="translate(22.993 20.883)">
      <g id="그룹_276" data-name="그룹 276" transform="translate(4.146 23.354)">
        <path id="패스_214" data-name="패스 214" d="M73.993,135.844a3.164,3.164,0,0,1-2.36-1.072,1.758,1.758,0,0,0-2.795,0,3.165,3.165,0,0,1-2.36,1.072A4.177,4.177,0,0,1,63.9,134.83a2.874,2.874,0,0,0-1.758-.75v-1.406a4.178,4.178,0,0,1,2.578,1.014,2.874,2.874,0,0,0,1.758.75,1.813,1.813,0,0,0,1.4-.691,3.133,3.133,0,0,1,4.72,0,1.814,1.814,0,0,0,1.4.691,2.839,2.839,0,0,0,1.748-.749,4.143,4.143,0,0,1,2.572-1.015v1.406a2.84,2.84,0,0,0-1.748.749A4.143,4.143,0,0,1,73.993,135.844Z" transform="translate(-62.142 -132.674)" fill="#fff"/>
      </g>
      <g id="그룹_277" data-name="그룹 277" transform="translate(5.717 18.577)">
        <path id="패스_215" data-name="패스 215" d="M79.127,115.462a3.165,3.165,0,0,1-2.36-1.072,1.758,1.758,0,0,0-2.795,0,3.166,3.166,0,0,1-2.36,1.072,4.226,4.226,0,0,1-2.765-1.443l1.054-.93-.527.465.526-.467a2.876,2.876,0,0,0,1.712.969,1.813,1.813,0,0,0,1.4-.691,3.133,3.133,0,0,1,4.72,0,1.813,1.813,0,0,0,1.4.691,4.123,4.123,0,0,0,1.958-.624l.7,1.221A5.422,5.422,0,0,1,79.127,115.462Z" transform="translate(-68.847 -112.292)" fill="#fff"/>
      </g>
      <g id="그룹_278" data-name="그룹 278" transform="translate(0 5.709)">
        <path id="패스_216" data-name="패스 216" d="M45.507,81.944a1.055,1.055,0,0,1-.945-1.521L55.63,57.972a1.054,1.054,0,0,1,.941-.588h0a1.055,1.055,0,0,1,.942.581l11.3,22.45a1.055,1.055,0,1,1-1.884.948L56.586,60.8,46.454,81.355A1.055,1.055,0,0,1,45.507,81.944Z" transform="translate(-44.453 -57.384)" fill="#fff"/>
      </g>
      <g id="그룹_279" data-name="그룹 279" transform="translate(11.069)">
        <path id="패스_217" data-name="패스 217" d="M92.737,40.843a1.054,1.054,0,0,1-1.055-1.055V34.08a1.055,1.055,0,1,1,2.109,0v5.709A1.055,1.055,0,0,1,92.737,40.843Z" transform="translate(-91.682 -33.025)" fill="#fff"/>
      </g>
      <g id="그룹_280" data-name="그룹 280" transform="translate(7.962 2.602)">
        <path id="패스_218" data-name="패스 218" d="M82.586,49.343a1.051,1.051,0,0,1-.746-.309l-3.107-3.107a1.055,1.055,0,0,1,1.491-1.492l3.107,3.107a1.055,1.055,0,0,1-.746,1.8Z" transform="translate(-78.424 -44.127)" fill="#fff"/>
      </g>
      <g id="그룹_281" data-name="그룹 281" transform="translate(11.068 2.602)">
        <path id="패스_219" data-name="패스 219" d="M92.736,49.344a1.055,1.055,0,0,1-.746-1.8L95.1,44.436a1.055,1.055,0,1,1,1.491,1.492l-3.107,3.107A1.051,1.051,0,0,1,92.736,49.344Z" transform="translate(-91.681 -44.128)" fill="#fff"/>
      </g>
      <g id="그룹_282" data-name="그룹 282" transform="translate(6.244 19.256)">
        <path id="패스_220" data-name="패스 220" d="M71.1,115.187" transform="translate(-71.096 -115.187)" fill="#fff" stroke="#161615" stroke-linecap="round" stroke-linejoin="round" stroke-width="10"/>
      </g>
    </g>
    <g id="그룹_284" data-name="그룹 284" transform="translate(60.676 22.468)">
      <path id="패스_221" data-name="패스 221" d="M227.671,68.31H206.3a1.055,1.055,0,0,1-.82-1.718L225.461,41.9H206.3a1.055,1.055,0,1,1,0-2.109h21.374a1.055,1.055,0,0,1,.82,1.718L208.507,66.2h19.164a1.055,1.055,0,0,1,0,2.109Z" transform="translate(-205.242 -39.788)" fill="#fff"/>
    </g>
    <g id="그룹_286" data-name="그룹 286" transform="translate(70.109 63.514)">
      <path id="패스_223" data-name="패스 223" d="M246.548,241.7a1.055,1.055,0,0,1-1.055-1.055V215.98a1.055,1.055,0,1,1,2.109,0v24.667A1.055,1.055,0,0,1,246.548,241.7Z" transform="translate(-245.493 -214.925)" fill="#fff"/>
    </g>
    <g id="그룹_287" data-name="그룹 287" transform="translate(55.892 52.529)">
      <path id="패스_224" data-name="패스 224" d="M185.885,181.195a1.054,1.054,0,0,1-1-1.373c2.71-8.551,14.465-11.608,14.964-11.734a1.055,1.055,0,1,1,.516,2.045c-.12.031-7.278,1.907-11.277,6.52a10.422,10.422,0,0,1,5.431-1.188,8.8,8.8,0,0,1,6.443,4.012,1.055,1.055,0,0,1-1.709,1.236,6.794,6.794,0,0,0-4.911-3.146c-3.937-.333-7.675,3.29-7.712,3.326A1.053,1.053,0,0,1,185.885,181.195Z" transform="translate(-184.83 -168.055)" fill="#fff"/>
    </g>
    <g id="그룹_288" data-name="그룹 288" transform="translate(70.108 52.529)">
      <path id="패스_225" data-name="패스 225" d="M260.763,181.2a1.053,1.053,0,0,1-.739-.3c-.037-.035-3.8-3.662-7.721-3.326a6.8,6.8,0,0,0-4.9,3.145,1.055,1.055,0,1,1-1.709-1.236,8.8,8.8,0,0,1,6.443-4.012,10.417,10.417,0,0,1,5.437,1.191c-4.007-4.634-11.194-6.5-11.284-6.522a1.055,1.055,0,1,1,.516-2.045c.5.126,12.254,3.184,14.964,11.734a1.054,1.054,0,0,1-1,1.373Z" transform="translate(-245.491 -168.056)" fill="#fff"/>
    </g>
    <g id="그룹_289" data-name="그룹 289" transform="translate(71.163 65.227)">
      <path id="패스_226" data-name="패스 226" d="M249.993,222.237" transform="translate(-249.993 -222.237)" fill="#fff" stroke="#161615" stroke-linecap="round" stroke-linejoin="round" stroke-width="6"/>
    </g>
    <g id="그룹_294" data-name="그룹 294" transform="translate(26.662 51.997)">
      <g id="그룹_290" data-name="그룹 290">
        <path id="패스_227" data-name="패스 227" d="M61.162,175.571a1.055,1.055,0,0,1-.746-1.8l7.678-7.678a1.055,1.055,0,0,1,1.491,0l7.678,7.678a1.055,1.055,0,0,1-1.492,1.491L68.84,168.33l-6.932,6.932A1.053,1.053,0,0,1,61.162,175.571Z" transform="translate(-60.107 -165.784)" fill="#fff"/>
      </g>
      <g id="그룹_291" data-name="그룹 291" transform="translate(0 7.678)">
        <path id="패스_228" data-name="패스 228" d="M61.162,208.332a1.055,1.055,0,0,1-.746-1.8l7.678-7.678a1.055,1.055,0,0,1,1.491,0l7.678,7.678a1.055,1.055,0,0,1-1.492,1.491l-6.932-6.932-6.932,6.932A1.052,1.052,0,0,1,61.162,208.332Z" transform="translate(-60.107 -198.545)" fill="#fff"/>
      </g>
      <g id="그룹_292" data-name="그룹 292" transform="translate(0 15.811)">
        <path id="패스_229" data-name="패스 229" d="M61.162,243.037a1.055,1.055,0,0,1-.746-1.8l7.678-7.678a1.055,1.055,0,0,1,1.491,0l7.678,7.678a1.055,1.055,0,0,1-1.492,1.491L68.84,235.8l-6.932,6.932A1.053,1.053,0,0,1,61.162,243.037Z" transform="translate(-60.107 -233.25)" fill="#fff"/>
      </g>
      <g id="그룹_293" data-name="그룹 293" transform="translate(7.678 0.76)">
        <path id="패스_230" data-name="패스 230" d="M93.923,206.558a1.055,1.055,0,0,1-1.055-1.055V170.08a1.055,1.055,0,1,1,2.109,0V205.5A1.055,1.055,0,0,1,93.923,206.558Z" transform="translate(-92.868 -169.025)" fill="#fff"/>
      </g>
    </g>
    <g id="그룹_295" data-name="그룹 295" transform="translate(16.424 17.167)">
      <path id="패스_231" data-name="패스 231" d="M90.158,90.632H17.479a1.055,1.055,0,0,1-1.055-1.055V18.222a1.054,1.054,0,0,1,1.055-1.055H90.158a1.055,1.055,0,0,1,1.055,1.055V89.578A1.055,1.055,0,0,1,90.158,90.632ZM18.533,88.523H89.1V19.276H18.533Z" transform="translate(-16.424 -17.167)" fill="#fff"/>
    </g>
  </g>
</svg>
