<svg xmlns="http://www.w3.org/2000/svg" width="100.804" height="40" viewBox="0 0 100.804 40">
  <g id="그룹_217" data-name="그룹 217" transform="translate(-16.886 -843.68)">
    <g id="그룹_188" data-name="그룹 188" transform="translate(102.268 858.559)">
      <g id="그룹_187" data-name="그룹 187" transform="translate(0 0)">
        <path id="패스_157" data-name="패스 157" d="M344.895,925.734c-.722,0-1.307-.426-1.307-.951V901.565c0-.525.585-.951,1.307-.951s1.307.425,1.307.951v23.219C346.2,925.309,345.616,925.734,344.895,925.734Z" transform="translate(-343.588 -900.614)" fill="#fff"/>
      </g>
    </g>
    <g id="그룹_190" data-name="그룹 190" transform="translate(21.62 873.561)">
      <g id="그룹_189" data-name="그룹 189" transform="translate(0 0)">
        <path id="패스_158" data-name="패스 158" d="M53.512,963.485a5.15,5.15,0,0,1-3.808-1.717,2.354,2.354,0,0,0-3.795,0,5.08,5.08,0,0,1-7.616,0,2.472,2.472,0,0,0-1.9-.961,1.4,1.4,0,1,1,0-2.792,5.15,5.15,0,0,1,3.808,1.717,2.354,2.354,0,0,0,3.794,0,5.15,5.15,0,0,1,3.808-1.717h0a5.15,5.15,0,0,1,3.808,1.717,2.354,2.354,0,0,0,3.8,0,5.15,5.15,0,0,1,3.808-1.717,1.4,1.4,0,1,1,0,2.792,2.472,2.472,0,0,0-1.9.961A5.15,5.15,0,0,1,53.512,963.485Z" transform="translate(-35 -958.015)" fill="#fff"/>
      </g>
    </g>
    <g id="그룹_192" data-name="그룹 192" transform="translate(24.596 866.945)">
      <g id="그룹_191" data-name="그룹 191">
        <path id="패스_159" data-name="패스 159" d="M61.561,937.82A4.821,4.821,0,0,1,58,936.213a2.2,2.2,0,0,0-3.553,0,4.821,4.821,0,0,1-3.565,1.608,6.328,6.328,0,0,1-4.161-2.156,1.307,1.307,0,0,1,1.956-1.732,3.856,3.856,0,0,0,2.2,1.275,2.314,2.314,0,0,0,1.776-.9,4.757,4.757,0,0,1,7.13,0,2.314,2.314,0,0,0,1.777.9,5.563,5.563,0,0,0,2.631-.846,1.307,1.307,0,0,1,1.3,2.27A8.01,8.01,0,0,1,61.561,937.82Z" transform="translate(-46.389 -932.7)" fill="#fff"/>
      </g>
    </g>
    <g id="그룹_194" data-name="그룹 194" transform="translate(16.886 849.151)">
      <g id="그룹_193" data-name="그룹 193">
        <path id="패스_160" data-name="패스 160" d="M18.191,899.143a1.307,1.307,0,0,1-1.171-1.885l15.735-31.915a1.307,1.307,0,0,1,1.167-.729h.005a1.307,1.307,0,0,1,1.167.719L51.16,897.248a1.307,1.307,0,1,1-2.334,1.175L33.939,868.851,19.365,898.414A1.307,1.307,0,0,1,18.191,899.143Z" transform="translate(-16.886 -864.614)" fill="#fff"/>
      </g>
    </g>
    <g id="그룹_196" data-name="그룹 196" transform="translate(73.441 848.467)">
      <g id="그룹_195" data-name="그룹 195">
        <path id="패스_161" data-name="패스 161" d="M234.595,871.526a1.307,1.307,0,0,1-.924-2.231l6.917-6.917a1.307,1.307,0,0,1,1.848,0l6.917,6.917a1.307,1.307,0,0,1-1.848,1.848l-5.993-5.993-5.993,5.993A1.3,1.3,0,0,1,234.595,871.526Z" transform="translate(-233.288 -861.995)" fill="#fff"/>
      </g>
    </g>
    <g id="그룹_198" data-name="그룹 198" transform="translate(73.441 855.384)">
      <g id="그룹_197" data-name="그룹 197">
        <path id="패스_162" data-name="패스 162" d="M234.595,897.994a1.307,1.307,0,0,1-.924-2.231l6.917-6.917a1.307,1.307,0,0,1,1.848,0l6.917,6.917a1.307,1.307,0,1,1-1.848,1.848l-5.993-5.993-5.993,5.993A1.3,1.3,0,0,1,234.595,897.994Z" transform="translate(-233.288 -888.463)" fill="#fff"/>
      </g>
    </g>
    <g id="그룹_200" data-name="그룹 200" transform="translate(73.441 862.712)">
      <g id="그룹_199" data-name="그룹 199">
        <path id="패스_163" data-name="패스 163" d="M234.595,926.033a1.307,1.307,0,0,1-.924-2.231l6.917-6.917a1.307,1.307,0,0,1,1.848,0l6.917,6.917a1.307,1.307,0,0,1-1.848,1.848l-5.993-5.993-5.993,5.993A1.3,1.3,0,0,1,234.595,926.033Z" transform="translate(-233.288 -916.502)" fill="#fff"/>
      </g>
    </g>
    <g id="그룹_202" data-name="그룹 202" transform="translate(89.459 848.947)">
      <g id="그룹_201" data-name="그룹 201" transform="translate(0 0)">
        <path id="패스_164" data-name="패스 164" d="M295.884,876.383a1.306,1.306,0,0,1-1.245-1.7c2.5-7.891,13.277-10.695,13.734-10.81a1.307,1.307,0,0,1,.641,2.534h0a24.212,24.212,0,0,0-8.771,4.542,8.788,8.788,0,0,1,3.445-.439,8.269,8.269,0,0,1,6.063,3.761,1.307,1.307,0,0,1-2.118,1.531,5.71,5.71,0,0,0-4.166-2.688c-3.328-.282-6.636,2.864-6.668,2.9A1.306,1.306,0,0,1,295.884,876.383Z" transform="translate(-294.578 -863.832)" fill="#fff"/>
      </g>
    </g>
    <g id="그룹_204" data-name="그룹 204" transform="translate(102.267 848.946)">
      <g id="그룹_203" data-name="그룹 203" transform="translate(0 0)">
        <path id="패스_165" data-name="패스 165" d="M357.7,876.382a1.306,1.306,0,0,1-.916-.374c-.031-.03-3.315-3.187-6.678-2.9a5.715,5.715,0,0,0-4.156,2.687,1.307,1.307,0,0,1-2.118-1.531,8.27,8.27,0,0,1,6.064-3.761,8.778,8.778,0,0,1,3.457.443,24.063,24.063,0,0,0-8.781-4.546,1.307,1.307,0,1,1,.639-2.534c.457.115,11.233,2.919,13.734,10.81a1.307,1.307,0,0,1-1.245,1.7Z" transform="translate(-343.587 -863.831)" fill="#fff"/>
      </g>
    </g>
    <g id="그룹_206" data-name="그룹 206" transform="translate(103.574 860.743)">
      <g id="그룹_205" data-name="그룹 205">
        <path id="패스_166" data-name="패스 166" d="M348.588,908.969" transform="translate(-348.588 -908.969)" fill="#fff" stroke="#161615" stroke-linecap="round" stroke-linejoin="round" stroke-width="10"/>
      </g>
    </g>
    <g id="그룹_208" data-name="그룹 208" transform="translate(33.276 843.68)">
      <g id="그룹_207" data-name="그룹 207">
        <path id="패스_167" data-name="패스 167" d="M80.586,851.765a.985.985,0,0,1-.984-.985v-6.115a.985.985,0,1,1,1.969,0v6.115A.985.985,0,0,1,80.586,851.765Z" transform="translate(-79.602 -843.68)" fill="#fff"/>
      </g>
    </g>
    <g id="그룹_210" data-name="그룹 210" transform="translate(30.203 846.4)">
      <g id="그룹_209" data-name="그룹 209">
        <path id="패스_168" data-name="패스 168" d="M72.21,859.451a.994.994,0,0,1-.705-.292l-3.37-3.37a1,1,0,0,1,1.41-1.41l3.371,3.37a1,1,0,0,1-.705,1.7Z" transform="translate(-67.842 -854.087)" fill="#fff"/>
      </g>
    </g>
    <g id="그룹_212" data-name="그룹 212" transform="translate(32.954 846.4)">
      <g id="그룹_211" data-name="그룹 211">
        <path id="패스_169" data-name="패스 169" d="M79.367,859.451a1,1,0,0,1-.705-1.7l3.37-3.37a1,1,0,1,1,1.41,1.41l-3.37,3.37A.993.993,0,0,1,79.367,859.451Z" transform="translate(-78.37 -854.087)" fill="#fff"/>
      </g>
    </g>
    <g id="그룹_214" data-name="그룹 214" transform="translate(80.359 849.151)">
      <g id="그룹_213" data-name="그룹 213">
        <path id="패스_170" data-name="패스 170" d="M261.063,899.143a1.307,1.307,0,0,1-1.307-1.307V865.921a1.307,1.307,0,0,1,2.613,0v31.915A1.307,1.307,0,0,1,261.063,899.143Z" transform="translate(-259.756 -864.614)" fill="#fff"/>
      </g>
    </g>
    <g id="그룹_215" data-name="그룹 215" transform="translate(46.034 862.711)">
      <path id="패스_171" data-name="패스 171" d="M131.678,916.524c2.3,0,3.259,1.7,3.259,3.646s-.961,3.633-3.259,3.633-3.259-1.686-3.259-3.633S129.36,916.524,131.678,916.524Zm2.247,3.646c0-1.463-.537-2.391-2.247-2.391s-2.247.928-2.247,2.391.526,2.378,2.247,2.378S133.925,921.634,133.925,920.17Zm1.609-3.672h1.012v.261h1.063V918h-1.063v5.907h-1.012Z" transform="translate(-128.419 -916.498)" fill="#fff"/>
      <path id="패스_172" data-name="패스 172" d="M167.75,919.02V917.9h-2.267v-1.255h5.526V917.9h-2.257v1.111a5.123,5.123,0,0,0,2.622,3.385l-.344,1.124a6.179,6.179,0,0,1-2.753-2.94,6.117,6.117,0,0,1-2.794,3.2l-.344-1.124A5.234,5.234,0,0,0,167.75,919.02Zm4.616-2.522h1.012v7.409h-1.012Z" transform="translate(-155.542 -916.498)" fill="#fff"/>
      <path id="패스_173" data-name="패스 173" d="M200.542,922.8h8.26v1.255h-8.26Zm.2-5.75h7.814V918.3h-6.8v.653h6.62v1.255h-6.62v.653h6.9v1.254h-7.915Z" transform="translate(-181.693 -916.904)" fill="#fff"/>
    </g>
    <g id="그룹_216" data-name="그룹 216" transform="translate(51.754 850.685)">
      <path id="패스_174" data-name="패스 174" d="M151.613,873.869h17.228l-4.534,6.673h3.481l4.924-7.247a2.1,2.1,0,0,0,.21-1.816,1.337,1.337,0,0,0-1.191-1H151.613a1.749,1.749,0,0,0,0,3.385Z" transform="translate(-150.306 -870.484)" fill="#fff"/>
      <path id="패스_175" data-name="패스 175" d="M171.732,956.97H154.5l6.446-9.486h-3.481l-6.836,10.06a2.1,2.1,0,0,0-.21,1.816,1.337,1.337,0,0,0,1.191,1h20.119a1.75,1.75,0,0,0,0-3.385Z" transform="translate(-150.306 -927.36)" fill="#fff"/>
    </g>
  </g>
</svg>
